<mxfile host="app.diagrams.net" agent="Mozilla/5.0 (Windows NT 10.0; Win64; x64) AppleWebKit/537.36 (KHTML, like Gecko) Chrome/131.0.0.0 Safari/537.36 Edg/131.0.0.0" version="26.0.3">
  <diagram name="Page-1" id="c7558073-3199-34d8-9f00-42111426c3f3">
    <mxGraphModel dx="3142" dy="1273" grid="1" gridSize="10" guides="1" tooltips="1" connect="1" arrows="1" fold="1" page="1" pageScale="1" pageWidth="826" pageHeight="1169" background="none" math="0" shadow="0">
      <root>
        <mxCell id="0" />
        <mxCell id="1" parent="0" />
        <mxCell id="xv28efa4fhHSgahB6fmt-61" value="" style="rounded=1;whiteSpace=wrap;html=1;strokeColor=#FF8000;align=center;verticalAlign=middle;fontFamily=Helvetica;fontSize=12;fontColor=default;fillColor=default;strokeWidth=4;" vertex="1" parent="1">
          <mxGeometry x="-290" y="840" width="400" height="850" as="geometry" />
        </mxCell>
        <mxCell id="xv28efa4fhHSgahB6fmt-60" value="" style="rounded=1;whiteSpace=wrap;html=1;strokeColor=#FF8000;align=center;verticalAlign=middle;fontFamily=Helvetica;fontSize=12;fontColor=default;fillColor=default;strokeWidth=4;" vertex="1" parent="1">
          <mxGeometry x="114.19" y="840" width="487.62" height="850" as="geometry" />
        </mxCell>
        <mxCell id="xv28efa4fhHSgahB6fmt-17" value="&lt;font&gt;&lt;span style=&quot;font-size: 29px;&quot;&gt;&lt;b&gt;Y&lt;/b&gt;&lt;/span&gt;&lt;/font&gt;" style="whiteSpace=wrap;html=1;rounded=1;strokeColor=none;align=center;verticalAlign=middle;fontFamily=Helvetica;fontSize=12;fontColor=#000000;fillColor=default;" vertex="1" parent="1">
          <mxGeometry x="360" y="1130" width="30" height="30" as="geometry" />
        </mxCell>
        <mxCell id="PL0G8_uLE7mK1jj2Irlm-79" value="&lt;font style=&quot;color: rgb(255, 128, 0); font-size: 29px;&quot;&gt;&lt;b style=&quot;&quot;&gt;ESP -NOW通信协议&lt;/b&gt;&lt;/font&gt;" style="whiteSpace=wrap;html=1;rounded=1;strokeColor=none;align=center;verticalAlign=middle;fontFamily=Helvetica;fontSize=12;fontColor=default;fillColor=default;" parent="1" vertex="1">
          <mxGeometry x="-240" y="310" width="150" height="105" as="geometry" />
        </mxCell>
        <mxCell id="PL0G8_uLE7mK1jj2Irlm-73" value="" style="rounded=1;whiteSpace=wrap;html=1;strokeColor=#FF8000;align=center;verticalAlign=middle;fontFamily=Helvetica;fontSize=12;fontColor=default;fillColor=default;strokeWidth=4;" parent="1" vertex="1">
          <mxGeometry x="-80" y="118" width="760" height="610" as="geometry" />
        </mxCell>
        <mxCell id="PL0G8_uLE7mK1jj2Irlm-72" value="" style="rounded=1;whiteSpace=wrap;html=1;strokeColor=#FF8000;align=center;verticalAlign=middle;fontFamily=Helvetica;fontSize=12;fontColor=default;fillColor=default;strokeWidth=4;" parent="1" vertex="1">
          <mxGeometry x="-700" y="155" width="441.25" height="490" as="geometry" />
        </mxCell>
        <mxCell id="NS8gQTfLll2vz3Bp2NVF-114" value="&lt;font style=&quot;font-size: 20px;&quot;&gt;&lt;b&gt;OLED模块&lt;/b&gt;&lt;/font&gt;" style="shape=ext;double=1;rounded=1;whiteSpace=wrap;html=1;fillColor=#ffcd28;gradientColor=#ffa500;strokeColor=#d79b00;opacity=60;" parent="1" vertex="1">
          <mxGeometry x="165.63" y="178" width="117.5" height="66" as="geometry" />
        </mxCell>
        <mxCell id="NS8gQTfLll2vz3Bp2NVF-115" value="&lt;font style=&quot;font-size: 20px;&quot;&gt;&lt;b&gt;&lt;span style=&quot;white-space: pre;&quot;&gt; RZ7899&lt;/span&gt;电机驱动模块&lt;/b&gt;&lt;/font&gt;" style="shape=ext;double=1;rounded=1;whiteSpace=wrap;html=1;fillColor=#ffcd28;gradientColor=#ffa500;strokeColor=#d79b00;opacity=60;" parent="1" vertex="1">
          <mxGeometry x="314.38" y="168" width="150" height="76" as="geometry" />
        </mxCell>
        <mxCell id="NS8gQTfLll2vz3Bp2NVF-117" value="" style="shape=image;html=1;verticalLabelPosition=bottom;verticalAlign=top;imageAspect=1;aspect=fixed;image=img/clipart/Gear_128x128.png;strokeWidth=0;opacity=70;" parent="1" vertex="1">
          <mxGeometry x="319.38" y="204" width="25.57" height="30" as="geometry" />
        </mxCell>
        <mxCell id="PL0G8_uLE7mK1jj2Irlm-58" value="" style="edgeStyle=orthogonalEdgeStyle;rounded=0;orthogonalLoop=1;jettySize=auto;html=1;fontFamily=Helvetica;fontSize=12;fontColor=default;endArrow=none;endFill=0;startArrow=classic;startFill=1;strokeWidth=4;" parent="1" source="PL0G8_uLE7mK1jj2Irlm-18" target="PL0G8_uLE7mK1jj2Irlm-19" edge="1">
          <mxGeometry relative="1" as="geometry" />
        </mxCell>
        <mxCell id="PL0G8_uLE7mK1jj2Irlm-18" value="" style="rounded=1;whiteSpace=wrap;html=1;strokeColor=#00FF00;align=center;verticalAlign=middle;fontFamily=Helvetica;fontSize=12;fontColor=default;fillColor=default;arcSize=15;strokeWidth=3;" parent="1" vertex="1">
          <mxGeometry x="155" y="318" width="320" height="220" as="geometry" />
        </mxCell>
        <mxCell id="NS8gQTfLll2vz3Bp2NVF-142" value="&lt;b style=&quot;font-size: 20px;&quot;&gt;STM32F103&lt;/b&gt;" style="shape=ext;double=1;rounded=1;whiteSpace=wrap;html=1;fillColor=#ffcd28;gradientColor=#ffa500;strokeColor=#d79b00;opacity=60;" parent="1" vertex="1">
          <mxGeometry x="320" y="438" width="140" height="80" as="geometry" />
        </mxCell>
        <mxCell id="PL0G8_uLE7mK1jj2Irlm-5" value="&lt;b style=&quot;font-size: 20px;&quot;&gt;STC12C5&lt;/b&gt;" style="shape=ext;double=1;rounded=1;whiteSpace=wrap;html=1;fillColor=#ffcd28;gradientColor=#ffa500;strokeColor=#d79b00;opacity=60;" parent="1" vertex="1">
          <mxGeometry x="170" y="438" width="140" height="80" as="geometry" />
        </mxCell>
        <mxCell id="PL0G8_uLE7mK1jj2Irlm-14" value="&lt;span style=&quot;font-size: 20px;&quot;&gt;&lt;span&gt;&lt;b&gt;ESP32WROOM&lt;/b&gt;&lt;/span&gt;&lt;/span&gt;" style="shape=ext;double=1;rounded=1;whiteSpace=wrap;html=1;fillColor=#ffcd28;gradientColor=#ffa500;strokeColor=#d79b00;opacity=60;" parent="1" vertex="1">
          <mxGeometry x="243" y="338" width="170" height="80" as="geometry" />
        </mxCell>
        <mxCell id="PL0G8_uLE7mK1jj2Irlm-19" value="&lt;b style=&quot;font-size: 20px;&quot;&gt;ESP01S无线通信模块&lt;/b&gt;" style="shape=ext;double=1;rounded=1;whiteSpace=wrap;html=1;fillColor=#ffcd28;gradientColor=#ffa500;strokeColor=#d79b00;opacity=60;" parent="1" vertex="1">
          <mxGeometry x="-40" y="388" width="130" height="80" as="geometry" />
        </mxCell>
        <mxCell id="PL0G8_uLE7mK1jj2Irlm-20" value="&lt;b style=&quot;font-size: 20px;&quot;&gt;LM117稳压模块&lt;/b&gt;" style="shape=ext;double=1;rounded=1;whiteSpace=wrap;html=1;fillColor=#ffcd28;gradientColor=#ffa500;strokeColor=#d79b00;opacity=60;" parent="1" vertex="1">
          <mxGeometry x="170" y="601" width="110" height="75" as="geometry" />
        </mxCell>
        <mxCell id="PL0G8_uLE7mK1jj2Irlm-21" value="&lt;b style=&quot;font-size: 20px;&quot;&gt;N20电机&lt;/b&gt;&lt;span style=&quot;color: rgba(0, 0, 0, 0); font-family: monospace; font-size: 0px; text-align: start; text-wrap-mode: nowrap;&quot;&gt;%3CmxGraphModel%3E%3Croot%3E%3CmxCell%20id%3D%220%22%2F%3E%3CmxCell%20id%3D%221%22%20parent%3D%220%22%2F%3E%3CmxCell%20id%3D%222%22%20value%3D%22%26lt%3Bb%20style%3D%26quot%3Bfont-size%3A%2020px%3B%26quot%3B%26gt%3BN20%E7%94%B5%E6%9C%BA%26lt%3B%2Fb%26gt%3B%22%20style%3D%22shape%3Dext%3Bdouble%3D1%3Brounded%3D1%3BwhiteSpace%3Dwrap%3Bhtml%3D1%3BfillColor%3D%23ffcd28%3BgradientColor%3D%23ffa500%3BstrokeColor%3D%23d79b00%3Bopacity%3D60%3B%22%20vertex%3D%221%22%20parent%3D%221%22%3E%3CmxGeometry%20x%3D%22540%22%20y%3D%22340%22%20width%3D%22110%22%20height%3D%2275%22%20as%3D%22geometry%22%2F%3E%3C%2FmxCell%3E%3C%2Froot%3E%3C%2FmxGraphModel%3E&lt;/span&gt;" style="shape=ext;double=1;rounded=1;whiteSpace=wrap;html=1;fillColor=#ffcd28;gradientColor=#ffa500;strokeColor=#d79b00;opacity=60;" parent="1" vertex="1">
          <mxGeometry x="520" y="388" width="110" height="75" as="geometry" />
        </mxCell>
        <mxCell id="PL0G8_uLE7mK1jj2Irlm-25" value="&lt;font style=&quot;font-size: 28px;&quot;&gt;&lt;b style=&quot;&quot;&gt;主控&lt;/b&gt;&lt;/font&gt;" style="whiteSpace=wrap;html=1;rounded=1;strokeColor=none;align=center;verticalAlign=middle;fontFamily=Helvetica;fontSize=12;fontColor=default;fillColor=default;" parent="1" vertex="1">
          <mxGeometry x="170" y="358" width="60" height="60" as="geometry" />
        </mxCell>
        <mxCell id="PL0G8_uLE7mK1jj2Irlm-27" value="&lt;span style=&quot;font-size: 20px;&quot;&gt;&lt;b&gt;5V电源&lt;/b&gt;&lt;/span&gt;" style="shape=ext;double=1;rounded=1;whiteSpace=wrap;html=1;fillColor=#ffcd28;gradientColor=#ffa500;strokeColor=#d79b00;opacity=60;" parent="1" vertex="1">
          <mxGeometry x="345" y="598" width="110" height="75" as="geometry" />
        </mxCell>
        <mxCell id="PL0G8_uLE7mK1jj2Irlm-38" value="" style="edgeStyle=orthogonalEdgeStyle;rounded=0;orthogonalLoop=1;jettySize=auto;html=1;fontFamily=Helvetica;fontSize=12;fontColor=default;strokeWidth=4;" parent="1" source="PL0G8_uLE7mK1jj2Irlm-29" target="PL0G8_uLE7mK1jj2Irlm-32" edge="1">
          <mxGeometry relative="1" as="geometry">
            <Array as="points">
              <mxPoint x="-470" y="495" />
              <mxPoint x="-470" y="495" />
            </Array>
          </mxGeometry>
        </mxCell>
        <mxCell id="PL0G8_uLE7mK1jj2Irlm-44" value="" style="edgeStyle=orthogonalEdgeStyle;rounded=0;orthogonalLoop=1;jettySize=auto;html=1;fontFamily=Helvetica;fontSize=12;fontColor=default;strokeWidth=4;" parent="1" source="PL0G8_uLE7mK1jj2Irlm-29" target="PL0G8_uLE7mK1jj2Irlm-30" edge="1">
          <mxGeometry relative="1" as="geometry" />
        </mxCell>
        <mxCell id="PL0G8_uLE7mK1jj2Irlm-29" value="&lt;span style=&quot;font-size: 20px;&quot;&gt;&lt;span&gt;&lt;b&gt;ESP32WROOM&lt;/b&gt;&lt;/span&gt;&lt;/span&gt;" style="shape=ext;double=1;rounded=1;whiteSpace=wrap;html=1;fillColor=#ffcd28;gradientColor=#ffa500;strokeColor=#d79b00;opacity=60;points=[[0,0,0,0,0],[0,0.25,0,0,0],[0,0.5,0,0,0],[0,0.75,0,0,0],[0,1,0,0,0],[0.11,1,0,0,0],[0.25,0,0,0,0],[0.25,1,0,0,0],[0.5,0,0,0,0],[0.5,1,0,0,0],[0.75,0,0,0,0],[0.75,1,0,0,0],[1,0,0,0,0],[1,0.25,0,0,0],[1,0.5,0,0,0],[1,0.75,0,0,0],[1,1,0,0,0]];" parent="1" vertex="1">
          <mxGeometry x="-496.25" y="395" width="170" height="80" as="geometry" />
        </mxCell>
        <mxCell id="PL0G8_uLE7mK1jj2Irlm-30" value="&lt;font style=&quot;font-size: 20px;&quot;&gt;&lt;b&gt;OLED模块&lt;/b&gt;&lt;/font&gt;" style="shape=ext;double=1;rounded=1;whiteSpace=wrap;html=1;fillColor=#ffcd28;gradientColor=#ffa500;strokeColor=#d79b00;opacity=60;" parent="1" vertex="1">
          <mxGeometry x="-470" y="276.5000000000001" width="117.5" height="66" as="geometry" />
        </mxCell>
        <mxCell id="PL0G8_uLE7mK1jj2Irlm-35" value="" style="edgeStyle=orthogonalEdgeStyle;rounded=0;orthogonalLoop=1;jettySize=auto;html=1;fontFamily=Helvetica;fontSize=12;fontColor=default;strokeWidth=4;" parent="1" source="PL0G8_uLE7mK1jj2Irlm-31" target="PL0G8_uLE7mK1jj2Irlm-29" edge="1">
          <mxGeometry relative="1" as="geometry" />
        </mxCell>
        <mxCell id="PL0G8_uLE7mK1jj2Irlm-31" value="&lt;span style=&quot;font-size: 20px;&quot;&gt;&lt;b&gt;3.7V电源&lt;/b&gt;&lt;/span&gt;" style="shape=ext;double=1;rounded=1;whiteSpace=wrap;html=1;fillColor=#ffcd28;gradientColor=#ffa500;strokeColor=#d79b00;opacity=60;" parent="1" vertex="1">
          <mxGeometry x="-660" y="397.5" width="110" height="75" as="geometry" />
        </mxCell>
        <mxCell id="PL0G8_uLE7mK1jj2Irlm-32" value="&lt;span style=&quot;font-size: 20px;&quot;&gt;&lt;b&gt;摇杆&lt;/b&gt;&lt;/span&gt;" style="shape=ext;double=1;rounded=1;whiteSpace=wrap;html=1;fillColor=#ffcd28;gradientColor=#ffa500;strokeColor=#d79b00;opacity=60;" parent="1" vertex="1">
          <mxGeometry x="-540" y="530" width="100" height="60" as="geometry" />
        </mxCell>
        <mxCell id="PL0G8_uLE7mK1jj2Irlm-33" value="&lt;font style=&quot;font-size: 20px;&quot;&gt;&lt;b&gt;&lt;b&gt;MPU6050&lt;/b&gt;陀螺仪&lt;/b&gt;&lt;/font&gt;" style="shape=ext;double=1;rounded=1;whiteSpace=wrap;html=1;fillColor=#ffcd28;gradientColor=#ffa500;strokeColor=#d79b00;opacity=60;" parent="1" vertex="1">
          <mxGeometry x="-426" y="528" width="110" height="75" as="geometry" />
        </mxCell>
        <mxCell id="PL0G8_uLE7mK1jj2Irlm-36" value="" style="edgeStyle=orthogonalEdgeStyle;rounded=0;orthogonalLoop=1;jettySize=auto;html=1;fontFamily=Helvetica;fontSize=12;fontColor=default;strokeWidth=4;" parent="1" source="PL0G8_uLE7mK1jj2Irlm-34" target="PL0G8_uLE7mK1jj2Irlm-31" edge="1">
          <mxGeometry relative="1" as="geometry" />
        </mxCell>
        <mxCell id="PL0G8_uLE7mK1jj2Irlm-34" value="&lt;span style=&quot;font-size: 20px;&quot;&gt;&lt;b&gt;充电模块&lt;/b&gt;&lt;/span&gt;" style="shape=ext;double=1;rounded=1;whiteSpace=wrap;html=1;fillColor=#ffcd28;gradientColor=#ffa500;strokeColor=#d79b00;opacity=60;" parent="1" vertex="1">
          <mxGeometry x="-660" y="276.5" width="110" height="75" as="geometry" />
        </mxCell>
        <mxCell id="PL0G8_uLE7mK1jj2Irlm-43" value="" style="endArrow=classic;html=1;rounded=0;fontFamily=Helvetica;fontSize=12;fontColor=default;entryX=0.509;entryY=0.005;entryDx=0;entryDy=0;entryPerimeter=0;strokeWidth=4;" parent="1" target="PL0G8_uLE7mK1jj2Irlm-33" edge="1">
          <mxGeometry width="50" height="50" relative="1" as="geometry">
            <mxPoint x="-370" y="475" as="sourcePoint" />
            <mxPoint x="-370" y="515" as="targetPoint" />
            <Array as="points" />
          </mxGeometry>
        </mxCell>
        <mxCell id="PL0G8_uLE7mK1jj2Irlm-61" value="" style="endArrow=classic;html=1;rounded=0;fontFamily=Helvetica;fontSize=12;fontColor=default;entryX=0.5;entryY=1;entryDx=0;entryDy=0;strokeWidth=4;" parent="1" target="NS8gQTfLll2vz3Bp2NVF-114" edge="1">
          <mxGeometry width="50" height="50" relative="1" as="geometry">
            <mxPoint x="224.09" y="318" as="sourcePoint" />
            <mxPoint x="224.09" y="267.5" as="targetPoint" />
          </mxGeometry>
        </mxCell>
        <mxCell id="PL0G8_uLE7mK1jj2Irlm-62" value="" style="endArrow=classic;html=1;rounded=0;fontFamily=Helvetica;fontSize=12;fontColor=default;entryX=0.5;entryY=1;entryDx=0;entryDy=0;strokeWidth=4;" parent="1" edge="1">
          <mxGeometry width="50" height="50" relative="1" as="geometry">
            <mxPoint x="389.8" y="318" as="sourcePoint" />
            <mxPoint x="389.71000000000004" y="244" as="targetPoint" />
          </mxGeometry>
        </mxCell>
        <mxCell id="PL0G8_uLE7mK1jj2Irlm-63" value="" style="endArrow=classic;html=1;rounded=0;fontFamily=Helvetica;fontSize=12;fontColor=default;strokeWidth=4;" parent="1" edge="1">
          <mxGeometry width="50" height="50" relative="1" as="geometry">
            <mxPoint x="224.5" y="602" as="sourcePoint" />
            <mxPoint x="224.5" y="538" as="targetPoint" />
          </mxGeometry>
        </mxCell>
        <mxCell id="PL0G8_uLE7mK1jj2Irlm-64" value="" style="endArrow=classic;html=1;rounded=0;fontFamily=Helvetica;fontSize=12;fontColor=default;entryX=1;entryY=0.5;entryDx=0;entryDy=0;strokeWidth=4;" parent="1" target="PL0G8_uLE7mK1jj2Irlm-20" edge="1">
          <mxGeometry width="50" height="50" relative="1" as="geometry">
            <mxPoint x="344.95" y="638.08" as="sourcePoint" />
            <mxPoint x="300" y="638.08" as="targetPoint" />
          </mxGeometry>
        </mxCell>
        <mxCell id="PL0G8_uLE7mK1jj2Irlm-65" value="" style="endArrow=classic;html=1;rounded=0;fontFamily=Helvetica;fontSize=12;fontColor=default;exitX=0.996;exitY=0.465;exitDx=0;exitDy=0;exitPerimeter=0;strokeWidth=4;entryX=0.547;entryY=0.993;entryDx=0;entryDy=0;entryPerimeter=0;" parent="1" target="PL0G8_uLE7mK1jj2Irlm-21" edge="1">
          <mxGeometry width="50" height="50" relative="1" as="geometry">
            <mxPoint x="454.99999999999994" y="637.875" as="sourcePoint" />
            <mxPoint x="580" y="478" as="targetPoint" />
            <Array as="points">
              <mxPoint x="580.44" y="638" />
              <mxPoint x="580.44" y="613" />
            </Array>
          </mxGeometry>
        </mxCell>
        <mxCell id="PL0G8_uLE7mK1jj2Irlm-66" value="" style="endArrow=classic;html=1;rounded=0;fontFamily=Helvetica;fontSize=12;fontColor=default;entryX=1;entryY=0.5;entryDx=0;entryDy=0;strokeWidth=4;" parent="1" edge="1">
          <mxGeometry width="50" height="50" relative="1" as="geometry">
            <mxPoint x="582.17" y="635.5" as="sourcePoint" />
            <mxPoint x="466.5499999999999" y="193.5" as="targetPoint" />
            <Array as="points">
              <mxPoint x="642.17" y="635.5" />
              <mxPoint x="642.17" y="195.5" />
            </Array>
          </mxGeometry>
        </mxCell>
        <mxCell id="PL0G8_uLE7mK1jj2Irlm-67" value="" style="endArrow=classic;html=1;rounded=0;fontFamily=Helvetica;fontSize=12;fontColor=default;entryX=0.456;entryY=1.03;entryDx=0;entryDy=0;entryPerimeter=0;strokeWidth=4;" parent="1" target="PL0G8_uLE7mK1jj2Irlm-19" edge="1">
          <mxGeometry width="50" height="50" relative="1" as="geometry">
            <mxPoint x="170" y="643" as="sourcePoint" />
            <mxPoint x="20" y="478" as="targetPoint" />
            <Array as="points">
              <mxPoint x="20" y="643" />
            </Array>
          </mxGeometry>
        </mxCell>
        <mxCell id="PL0G8_uLE7mK1jj2Irlm-68" value="" style="endArrow=classic;html=1;rounded=0;fontFamily=Helvetica;fontSize=12;fontColor=default;entryX=0.545;entryY=0;entryDx=0;entryDy=0;entryPerimeter=0;strokeWidth=4;" parent="1" target="PL0G8_uLE7mK1jj2Irlm-21" edge="1">
          <mxGeometry width="50" height="50" relative="1" as="geometry">
            <mxPoint x="464.38" y="223" as="sourcePoint" />
            <mxPoint x="580" y="378" as="targetPoint" />
            <Array as="points">
              <mxPoint x="580" y="223" />
            </Array>
          </mxGeometry>
        </mxCell>
        <mxCell id="PL0G8_uLE7mK1jj2Irlm-69" value="" style="endArrow=classic;html=1;rounded=0;fontFamily=Helvetica;fontSize=12;fontColor=default;exitX=0;exitY=0.533;exitDx=0;exitDy=0;exitPerimeter=0;strokeWidth=4;" parent="1" source="PL0G8_uLE7mK1jj2Irlm-21" edge="1">
          <mxGeometry width="50" height="50" relative="1" as="geometry">
            <mxPoint x="515" y="427.79" as="sourcePoint" />
            <mxPoint x="475" y="428.04" as="targetPoint" />
          </mxGeometry>
        </mxCell>
        <mxCell id="PL0G8_uLE7mK1jj2Irlm-71" value="" style="endArrow=classic;html=1;rounded=0;fontFamily=Helvetica;fontSize=12;fontColor=default;strokeWidth=4;" parent="1" edge="1">
          <mxGeometry width="50" height="50" relative="1" as="geometry">
            <mxPoint x="110" y="643" as="sourcePoint" />
            <mxPoint x="165" y="213" as="targetPoint" />
            <Array as="points">
              <mxPoint x="110" y="213" />
            </Array>
          </mxGeometry>
        </mxCell>
        <mxCell id="PL0G8_uLE7mK1jj2Irlm-75" value="&lt;font style=&quot;color: rgb(255, 128, 0); font-size: 40px;&quot;&gt;&lt;b style=&quot;&quot;&gt;遥控端&lt;/b&gt;&lt;/font&gt;" style="whiteSpace=wrap;html=1;rounded=1;strokeColor=none;align=center;verticalAlign=middle;fontFamily=Helvetica;fontSize=12;fontColor=default;fillColor=default;" parent="1" vertex="1">
          <mxGeometry x="-570" y="190" width="170" height="60" as="geometry" />
        </mxCell>
        <mxCell id="PL0G8_uLE7mK1jj2Irlm-76" value="&lt;font style=&quot;color: rgb(255, 128, 0); font-size: 40px;&quot;&gt;&lt;b style=&quot;&quot;&gt;小车端&lt;/b&gt;&lt;/font&gt;" style="whiteSpace=wrap;html=1;rounded=1;strokeColor=none;align=center;verticalAlign=middle;fontFamily=Helvetica;fontSize=12;fontColor=default;fillColor=default;" parent="1" vertex="1">
          <mxGeometry x="-60" y="174" width="140" height="90" as="geometry" />
        </mxCell>
        <mxCell id="PL0G8_uLE7mK1jj2Irlm-77" value="" style="endArrow=classic;html=1;rounded=0;fontFamily=Helvetica;fontSize=12;fontColor=default;entryX=0;entryY=0.495;entryDx=0;entryDy=0;entryPerimeter=0;exitX=1.005;exitY=0.541;exitDx=0;exitDy=0;exitPerimeter=0;strokeWidth=7;" parent="1" edge="1">
          <mxGeometry width="50" height="50" relative="1" as="geometry">
            <mxPoint x="-256.54375000000005" y="410.14000000000004" as="sourcePoint" />
            <mxPoint x="-80" y="410.00000000000006" as="targetPoint" />
          </mxGeometry>
        </mxCell>
        <mxCell id="PL0G8_uLE7mK1jj2Irlm-78" value="" style="endArrow=none;html=1;rounded=0;fontFamily=Helvetica;fontSize=12;fontColor=default;startArrow=classic;startFill=1;endFill=0;entryX=-0.003;entryY=0.52;entryDx=0;entryDy=0;entryPerimeter=0;strokeWidth=7;" parent="1" edge="1">
          <mxGeometry width="50" height="50" relative="1" as="geometry">
            <mxPoint x="-258.75" y="450" as="sourcePoint" />
            <mxPoint x="-82.27999999999997" y="450.45000000000005" as="targetPoint" />
          </mxGeometry>
        </mxCell>
        <mxCell id="xv28efa4fhHSgahB6fmt-11" value="" style="edgeStyle=orthogonalEdgeStyle;rounded=0;orthogonalLoop=1;jettySize=auto;html=1;fontFamily=Helvetica;fontSize=12;fontColor=default;strokeWidth=4;" edge="1" parent="1" source="PL0G8_uLE7mK1jj2Irlm-80" target="PL0G8_uLE7mK1jj2Irlm-84">
          <mxGeometry relative="1" as="geometry" />
        </mxCell>
        <mxCell id="PL0G8_uLE7mK1jj2Irlm-80" value="&lt;span style=&quot;font-size: 20px;&quot;&gt;&lt;b&gt;开始&lt;/b&gt;&lt;/span&gt;" style="shape=ext;double=1;rounded=1;whiteSpace=wrap;html=1;fillColor=#ffcd28;gradientColor=#ffa500;strokeColor=#d79b00;opacity=60;" parent="1" vertex="1">
          <mxGeometry x="310" y="940" width="98.25" height="60" as="geometry" />
        </mxCell>
        <mxCell id="PL0G8_uLE7mK1jj2Irlm-83" value="&lt;font style=&quot;font-size: 20px;&quot;&gt;&lt;b&gt;初始化RZ7899&lt;/b&gt;&lt;/font&gt;" style="shape=ext;double=1;rounded=1;whiteSpace=wrap;html=1;fillColor=#ffcd28;gradientColor=#ffa500;strokeColor=#d79b00;opacity=60;align=center;verticalAlign=middle;fontFamily=Helvetica;fontSize=12;fontColor=default;" parent="1" vertex="1">
          <mxGeometry x="160" y="1060" width="117.5" height="66" as="geometry" />
        </mxCell>
        <mxCell id="xv28efa4fhHSgahB6fmt-15" value="" style="edgeStyle=orthogonalEdgeStyle;rounded=0;orthogonalLoop=1;jettySize=auto;html=1;fontFamily=Helvetica;fontSize=12;fontColor=default;strokeWidth=4;entryX=0.5;entryY=0;entryDx=0;entryDy=0;" edge="1" parent="1" source="PL0G8_uLE7mK1jj2Irlm-84" target="xv28efa4fhHSgahB6fmt-5">
          <mxGeometry relative="1" as="geometry" />
        </mxCell>
        <mxCell id="PL0G8_uLE7mK1jj2Irlm-84" value="&lt;font style=&quot;font-size: 20px;&quot;&gt;&lt;b&gt;初始化ESP01s&lt;/b&gt;&lt;/font&gt;" style="shape=ext;double=1;rounded=1;whiteSpace=wrap;html=1;fillColor=#ffcd28;gradientColor=#ffa500;strokeColor=#d79b00;opacity=60;align=center;verticalAlign=middle;fontFamily=Helvetica;fontSize=12;fontColor=default;" parent="1" vertex="1">
          <mxGeometry x="299.5" y="1060" width="117.5" height="66" as="geometry" />
        </mxCell>
        <mxCell id="PL0G8_uLE7mK1jj2Irlm-85" value="&lt;font style=&quot;font-size: 20px;&quot;&gt;&lt;b&gt;初始化OLED&lt;/b&gt;&lt;/font&gt;" style="shape=ext;double=1;rounded=1;whiteSpace=wrap;html=1;fillColor=#ffcd28;gradientColor=#ffa500;strokeColor=#d79b00;opacity=60;align=center;verticalAlign=middle;fontFamily=Helvetica;fontSize=12;fontColor=default;" parent="1" vertex="1">
          <mxGeometry x="440" y="1060" width="117.5" height="66" as="geometry" />
        </mxCell>
        <mxCell id="xv28efa4fhHSgahB6fmt-18" value="" style="edgeStyle=orthogonalEdgeStyle;rounded=0;orthogonalLoop=1;jettySize=auto;html=1;fontFamily=Helvetica;fontSize=12;fontColor=default;strokeWidth=4;" edge="1" parent="1" source="xv28efa4fhHSgahB6fmt-5" target="xv28efa4fhHSgahB6fmt-10">
          <mxGeometry relative="1" as="geometry" />
        </mxCell>
        <mxCell id="xv28efa4fhHSgahB6fmt-5" value="&lt;b style=&quot;font-size: 20px;&quot;&gt;判断是否&lt;/b&gt;&lt;div&gt;&lt;b style=&quot;font-size: 20px;&quot;&gt;动作指令&lt;/b&gt;&lt;/div&gt;" style="rhombus;whiteSpace=wrap;html=1;fillColor=#ffcd28;strokeColor=#d79b00;rounded=1;gradientColor=#ffa500;opacity=85;" vertex="1" parent="1">
          <mxGeometry x="273" y="1190" width="170" height="100" as="geometry" />
        </mxCell>
        <mxCell id="xv28efa4fhHSgahB6fmt-21" value="" style="edgeStyle=orthogonalEdgeStyle;rounded=0;orthogonalLoop=1;jettySize=auto;html=1;fontFamily=Helvetica;fontSize=12;fontColor=default;endArrow=none;endFill=0;startArrow=classic;startFill=1;strokeWidth=4;" edge="1" parent="1" source="xv28efa4fhHSgahB6fmt-8" target="xv28efa4fhHSgahB6fmt-10">
          <mxGeometry relative="1" as="geometry" />
        </mxCell>
        <mxCell id="xv28efa4fhHSgahB6fmt-26" value="" style="edgeStyle=orthogonalEdgeStyle;rounded=0;orthogonalLoop=1;jettySize=auto;html=1;fontFamily=Helvetica;fontSize=12;fontColor=default;strokeWidth=4;" edge="1" parent="1" source="xv28efa4fhHSgahB6fmt-8" target="xv28efa4fhHSgahB6fmt-9">
          <mxGeometry relative="1" as="geometry" />
        </mxCell>
        <mxCell id="xv28efa4fhHSgahB6fmt-8" value="&lt;b style=&quot;font-size: 20px;&quot;&gt;N20电机&lt;/b&gt;&lt;span style=&quot;color: rgba(0, 0, 0, 0); font-family: monospace; font-size: 0px; text-align: start; text-wrap-mode: nowrap;&quot;&gt;%3CmxGraphModel%3E%3Croot%3E%3CmxCell%20id%3D%220%22%2F%3E%3CmxCell%20id%3D%221%22%20parent%3D%220%22%2F%3E%3CmxCell%20id%3D%222%22%20value%3D%22%26lt%3Bb%20style%3D%26quot%3Bfont-size%3A%2020px%3B%26quot%3B%26gt%3BN20%E7%94%B5%E6%9C%BA%26lt%3B%2Fb%26gt%3B%22%20style%3D%22shape%3Dext%3Bdouble%3D1%3Brounded%3D1%3BwhiteSpace%3Dwrap%3Bhtml%3D1%3BfillColor%3D%23ffcd28%3BgradientColor%3D%23ffa500%3BstrokeColor%3D%23d79b00%3Bopacity%3D60%3B%22%20vertex%3D%221%22%20parent%3D%221%22%3E%3CmxGeometry%20x%3D%22540%22%20y%3D%22340%22%20width%3D%22110%22%20height%3D%2275%22%20as%3D%22geometry%22%2F%3E%3C%2FmxCell%3E%3C%2Froot%3E%3C%2FmxGraphModel%3E&lt;/span&gt;" style="shape=ext;double=1;rounded=1;whiteSpace=wrap;html=1;fillColor=#ffcd28;gradientColor=#ffa500;strokeColor=#d79b00;opacity=60;" vertex="1" parent="1">
          <mxGeometry x="303.00000000000045" y="1480" width="110" height="75" as="geometry" />
        </mxCell>
        <mxCell id="xv28efa4fhHSgahB6fmt-9" value="&lt;font style=&quot;font-size: 20px;&quot;&gt;&lt;b&gt;OLED显示小车的状态&lt;/b&gt;&lt;/font&gt;" style="shape=ext;double=1;rounded=1;whiteSpace=wrap;html=1;fillColor=#ffcd28;gradientColor=#ffa500;strokeColor=#d79b00;opacity=60;align=center;verticalAlign=middle;fontFamily=Helvetica;fontSize=12;fontColor=default;" vertex="1" parent="1">
          <mxGeometry x="292.75" y="1600" width="130.5" height="80" as="geometry" />
        </mxCell>
        <mxCell id="xv28efa4fhHSgahB6fmt-10" value="&lt;font style=&quot;font-size: 20px;&quot;&gt;&lt;b&gt;&lt;span style=&quot;white-space: pre;&quot;&gt; RZ7899&lt;/span&gt;电机驱动模块&lt;/b&gt;&lt;/font&gt;" style="shape=ext;double=1;rounded=1;whiteSpace=wrap;html=1;fillColor=#ffcd28;gradientColor=#ffa500;strokeColor=#d79b00;opacity=60;" vertex="1" parent="1">
          <mxGeometry x="282.9999999999999" y="1344" width="150" height="76" as="geometry" />
        </mxCell>
        <mxCell id="xv28efa4fhHSgahB6fmt-12" value="" style="endArrow=classic;html=1;rounded=0;fontFamily=Helvetica;fontSize=12;fontColor=default;strokeWidth=4;entryX=0.5;entryY=0;entryDx=0;entryDy=0;" edge="1" parent="1" target="PL0G8_uLE7mK1jj2Irlm-85">
          <mxGeometry width="50" height="50" relative="1" as="geometry">
            <mxPoint x="410" y="990" as="sourcePoint" />
            <mxPoint x="500" y="1050" as="targetPoint" />
          </mxGeometry>
        </mxCell>
        <mxCell id="xv28efa4fhHSgahB6fmt-14" value="" style="endArrow=classic;html=1;rounded=0;fontFamily=Helvetica;fontSize=12;fontColor=default;strokeWidth=4;entryX=0.5;entryY=0;entryDx=0;entryDy=0;" edge="1" parent="1" target="PL0G8_uLE7mK1jj2Irlm-83">
          <mxGeometry width="50" height="50" relative="1" as="geometry">
            <mxPoint x="310" y="990" as="sourcePoint" />
            <mxPoint x="236.63" y="1050" as="targetPoint" />
          </mxGeometry>
        </mxCell>
        <mxCell id="xv28efa4fhHSgahB6fmt-19" value="&lt;font&gt;&lt;span style=&quot;font-size: 29px;&quot;&gt;&lt;b&gt;Y&lt;/b&gt;&lt;/span&gt;&lt;/font&gt;" style="whiteSpace=wrap;html=1;rounded=1;strokeColor=none;align=center;verticalAlign=middle;fontFamily=Helvetica;fontSize=12;fontColor=#000000;fillColor=default;" vertex="1" parent="1">
          <mxGeometry x="360" y="1290" width="30" height="30" as="geometry" />
        </mxCell>
        <mxCell id="xv28efa4fhHSgahB6fmt-22" value="&lt;font&gt;&lt;span style=&quot;font-size: 29px;&quot;&gt;&lt;b&gt;Y&lt;/b&gt;&lt;/span&gt;&lt;/font&gt;" style="whiteSpace=wrap;html=1;rounded=1;strokeColor=none;align=center;verticalAlign=middle;fontFamily=Helvetica;fontSize=12;fontColor=#000000;fillColor=default;" vertex="1" parent="1">
          <mxGeometry x="360" y="1430" width="30" height="30" as="geometry" />
        </mxCell>
        <mxCell id="xv28efa4fhHSgahB6fmt-23" value="" style="endArrow=classic;html=1;rounded=0;fontFamily=Helvetica;fontSize=12;fontColor=default;exitX=0.976;exitY=0.5;exitDx=0;exitDy=0;exitPerimeter=0;strokeWidth=4;" edge="1" parent="1" source="xv28efa4fhHSgahB6fmt-5">
          <mxGeometry width="50" height="50" relative="1" as="geometry">
            <mxPoint x="439" y="1234.47" as="sourcePoint" />
            <mxPoint x="360" y="1170" as="targetPoint" />
            <Array as="points">
              <mxPoint x="480" y="1240" />
              <mxPoint x="490" y="1240" />
              <mxPoint x="490" y="1170" />
            </Array>
          </mxGeometry>
        </mxCell>
        <mxCell id="xv28efa4fhHSgahB6fmt-24" value="&lt;font&gt;&lt;span style=&quot;font-size: 29px;&quot;&gt;&lt;b&gt;N&lt;/b&gt;&lt;/span&gt;&lt;/font&gt;" style="whiteSpace=wrap;html=1;rounded=1;strokeColor=none;align=center;verticalAlign=middle;fontFamily=Helvetica;fontSize=12;fontColor=#000000;fillColor=default;" vertex="1" parent="1">
          <mxGeometry x="450" y="1250" width="30" height="30" as="geometry" />
        </mxCell>
        <mxCell id="xv28efa4fhHSgahB6fmt-33" value="&lt;font&gt;&lt;span style=&quot;font-size: 29px;&quot;&gt;&lt;b&gt;Y&lt;/b&gt;&lt;/span&gt;&lt;/font&gt;" style="whiteSpace=wrap;html=1;rounded=1;strokeColor=none;align=center;verticalAlign=middle;fontFamily=Helvetica;fontSize=12;fontColor=#000000;fillColor=default;" vertex="1" parent="1">
          <mxGeometry x="-157" y="1130" width="30" height="30" as="geometry" />
        </mxCell>
        <mxCell id="xv28efa4fhHSgahB6fmt-35" value="&lt;span style=&quot;font-size: 20px;&quot;&gt;&lt;b&gt;开始&lt;/b&gt;&lt;/span&gt;" style="shape=ext;double=1;rounded=1;whiteSpace=wrap;html=1;fillColor=#ffcd28;gradientColor=#ffa500;strokeColor=#d79b00;opacity=60;" vertex="1" parent="1">
          <mxGeometry x="-150" y="940" width="98.25" height="60" as="geometry" />
        </mxCell>
        <mxCell id="xv28efa4fhHSgahB6fmt-37" value="" style="edgeStyle=orthogonalEdgeStyle;rounded=0;orthogonalLoop=1;jettySize=auto;html=1;fontFamily=Helvetica;fontSize=12;fontColor=default;strokeWidth=4;entryX=0.5;entryY=0;entryDx=0;entryDy=0;" edge="1" parent="1" source="xv28efa4fhHSgahB6fmt-38" target="xv28efa4fhHSgahB6fmt-40">
          <mxGeometry relative="1" as="geometry" />
        </mxCell>
        <mxCell id="xv28efa4fhHSgahB6fmt-38" value="&lt;font style=&quot;font-size: 20px;&quot;&gt;&lt;b&gt;初始化ESP01s&lt;/b&gt;&lt;/font&gt;" style="shape=ext;double=1;rounded=1;whiteSpace=wrap;html=1;fillColor=#ffcd28;gradientColor=#ffa500;strokeColor=#d79b00;opacity=60;align=center;verticalAlign=middle;fontFamily=Helvetica;fontSize=12;fontColor=default;" vertex="1" parent="1">
          <mxGeometry x="-217.5" y="1060" width="117.5" height="66" as="geometry" />
        </mxCell>
        <mxCell id="xv28efa4fhHSgahB6fmt-39" value="&lt;font style=&quot;font-size: 20px;&quot;&gt;&lt;b&gt;初始化OLED&lt;/b&gt;&lt;/font&gt;" style="shape=ext;double=1;rounded=1;whiteSpace=wrap;html=1;fillColor=#ffcd28;gradientColor=#ffa500;strokeColor=#d79b00;opacity=60;align=center;verticalAlign=middle;fontFamily=Helvetica;fontSize=12;fontColor=default;" vertex="1" parent="1">
          <mxGeometry x="-90" y="1060" width="117.5" height="66" as="geometry" />
        </mxCell>
        <mxCell id="xv28efa4fhHSgahB6fmt-57" value="" style="edgeStyle=orthogonalEdgeStyle;rounded=0;orthogonalLoop=1;jettySize=auto;html=1;fontFamily=Helvetica;fontSize=12;fontColor=default;strokeWidth=4;" edge="1" parent="1" source="xv28efa4fhHSgahB6fmt-40" target="xv28efa4fhHSgahB6fmt-52">
          <mxGeometry relative="1" as="geometry" />
        </mxCell>
        <mxCell id="xv28efa4fhHSgahB6fmt-40" value="&lt;b style=&quot;font-size: 20px;&quot;&gt;判断摇杆是&lt;/b&gt;&lt;div&gt;&lt;b style=&quot;font-size: 20px;&quot;&gt;否推动&lt;/b&gt;&lt;/div&gt;" style="rhombus;whiteSpace=wrap;html=1;fillColor=#ffcd28;strokeColor=#d79b00;rounded=1;gradientColor=#ffa500;opacity=85;" vertex="1" parent="1">
          <mxGeometry x="-250" y="1190" width="183" height="112" as="geometry" />
        </mxCell>
        <mxCell id="xv28efa4fhHSgahB6fmt-43" value="" style="endArrow=classic;html=1;rounded=0;fontFamily=Helvetica;fontSize=12;fontColor=default;exitX=0.976;exitY=0.5;exitDx=0;exitDy=0;exitPerimeter=0;strokeWidth=4;" edge="1" parent="1" source="xv28efa4fhHSgahB6fmt-40">
          <mxGeometry width="50" height="50" relative="1" as="geometry">
            <mxPoint x="-78" y="1234.47" as="sourcePoint" />
            <mxPoint x="-157" y="1170" as="targetPoint" />
            <Array as="points">
              <mxPoint x="-37" y="1246" />
              <mxPoint x="-27" y="1246" />
              <mxPoint x="-27" y="1170" />
            </Array>
          </mxGeometry>
        </mxCell>
        <mxCell id="xv28efa4fhHSgahB6fmt-44" value="&lt;font&gt;&lt;span style=&quot;font-size: 29px;&quot;&gt;&lt;b&gt;N&lt;/b&gt;&lt;/span&gt;&lt;/font&gt;" style="whiteSpace=wrap;html=1;rounded=1;strokeColor=none;align=center;verticalAlign=middle;fontFamily=Helvetica;fontSize=12;fontColor=#000000;fillColor=default;" vertex="1" parent="1">
          <mxGeometry x="-67" y="1250" width="30" height="30" as="geometry" />
        </mxCell>
        <mxCell id="xv28efa4fhHSgahB6fmt-47" value="" style="endArrow=classic;html=1;rounded=0;fontFamily=Helvetica;fontSize=12;fontColor=default;strokeWidth=4;" edge="1" parent="1">
          <mxGeometry width="50" height="50" relative="1" as="geometry">
            <mxPoint x="-110" y="1002" as="sourcePoint" />
            <mxPoint x="-150" y="1060" as="targetPoint" />
          </mxGeometry>
        </mxCell>
        <mxCell id="xv28efa4fhHSgahB6fmt-48" value="" style="endArrow=classic;html=1;rounded=0;fontFamily=Helvetica;fontSize=12;fontColor=default;strokeWidth=4;" edge="1" parent="1">
          <mxGeometry width="50" height="50" relative="1" as="geometry">
            <mxPoint x="-80" y="1002" as="sourcePoint" />
            <mxPoint x="-37" y="1060" as="targetPoint" />
          </mxGeometry>
        </mxCell>
        <mxCell id="xv28efa4fhHSgahB6fmt-50" value="" style="edgeStyle=orthogonalEdgeStyle;rounded=0;orthogonalLoop=1;jettySize=auto;html=1;fontFamily=Helvetica;fontSize=12;fontColor=default;endArrow=none;endFill=0;startArrow=classic;startFill=1;strokeWidth=4;" edge="1" parent="1" target="xv28efa4fhHSgahB6fmt-52">
          <mxGeometry relative="1" as="geometry">
            <mxPoint x="-158.74999999999977" y="1492" as="sourcePoint" />
          </mxGeometry>
        </mxCell>
        <mxCell id="xv28efa4fhHSgahB6fmt-52" value="&lt;b style=&quot;font-size: 20px;&quot;&gt;ESP-NOW发送动作指令&lt;/b&gt;" style="shape=ext;double=1;rounded=1;whiteSpace=wrap;html=1;fillColor=#ffcd28;gradientColor=#ffa500;strokeColor=#d79b00;opacity=60;" vertex="1" parent="1">
          <mxGeometry x="-233.7500000000001" y="1356" width="150" height="76" as="geometry" />
        </mxCell>
        <mxCell id="xv28efa4fhHSgahB6fmt-53" value="&lt;font&gt;&lt;span style=&quot;font-size: 29px;&quot;&gt;&lt;b&gt;Y&lt;/b&gt;&lt;/span&gt;&lt;/font&gt;" style="whiteSpace=wrap;html=1;rounded=1;strokeColor=none;align=center;verticalAlign=middle;fontFamily=Helvetica;fontSize=12;fontColor=#000000;fillColor=default;" vertex="1" parent="1">
          <mxGeometry x="-150" y="1302" width="30" height="30" as="geometry" />
        </mxCell>
        <mxCell id="xv28efa4fhHSgahB6fmt-54" value="&lt;font&gt;&lt;span style=&quot;font-size: 29px;&quot;&gt;&lt;b&gt;Y&lt;/b&gt;&lt;/span&gt;&lt;/font&gt;" style="whiteSpace=wrap;html=1;rounded=1;strokeColor=none;align=center;verticalAlign=middle;fontFamily=Helvetica;fontSize=12;fontColor=#000000;fillColor=default;" vertex="1" parent="1">
          <mxGeometry x="-150" y="1442" width="30" height="30" as="geometry" />
        </mxCell>
        <mxCell id="xv28efa4fhHSgahB6fmt-58" value="&lt;font style=&quot;font-size: 20px;&quot;&gt;&lt;b&gt;OLED显示小车的状态&lt;/b&gt;&lt;/font&gt;" style="shape=ext;double=1;rounded=1;whiteSpace=wrap;html=1;fillColor=#ffcd28;gradientColor=#ffa500;strokeColor=#d79b00;opacity=60;align=center;verticalAlign=middle;fontFamily=Helvetica;fontSize=12;fontColor=default;" vertex="1" parent="1">
          <mxGeometry x="-224" y="1492" width="130.5" height="80" as="geometry" />
        </mxCell>
        <mxCell id="xv28efa4fhHSgahB6fmt-59" value="" style="shape=image;html=1;verticalLabelPosition=bottom;verticalAlign=top;imageAspect=1;aspect=fixed;image=img/clipart/Gear_128x128.png;strokeWidth=0;opacity=70;" vertex="1" parent="1">
          <mxGeometry x="292.75" y="1384" width="25.57" height="30" as="geometry" />
        </mxCell>
        <mxCell id="xv28efa4fhHSgahB6fmt-62" value="&lt;font style=&quot;color: rgb(255, 128, 0); font-size: 40px;&quot;&gt;&lt;b style=&quot;&quot;&gt;遥控端&lt;/b&gt;&lt;/font&gt;" style="whiteSpace=wrap;html=1;rounded=1;strokeColor=none;align=center;verticalAlign=middle;fontFamily=Helvetica;fontSize=12;fontColor=default;fillColor=default;" vertex="1" parent="1">
          <mxGeometry x="-170" y="860" width="170" height="60" as="geometry" />
        </mxCell>
        <mxCell id="xv28efa4fhHSgahB6fmt-63" value="&lt;font style=&quot;color: rgb(255, 128, 0); font-size: 40px;&quot;&gt;&lt;b style=&quot;&quot;&gt;小车端&lt;/b&gt;&lt;/font&gt;" style="whiteSpace=wrap;html=1;rounded=1;strokeColor=none;align=center;verticalAlign=middle;fontFamily=Helvetica;fontSize=12;fontColor=default;fillColor=default;" vertex="1" parent="1">
          <mxGeometry x="283.24999999999994" y="860" width="140" height="60" as="geometry" />
        </mxCell>
        <mxCell id="xv28efa4fhHSgahB6fmt-115" style="edgeStyle=orthogonalEdgeStyle;rounded=0;orthogonalLoop=1;jettySize=auto;html=1;fontFamily=Helvetica;fontSize=12;fontColor=default;" edge="1" parent="1">
          <mxGeometry relative="1" as="geometry">
            <mxPoint x="910" y="880" as="targetPoint" />
            <mxPoint x="920" y="890" as="sourcePoint" />
          </mxGeometry>
        </mxCell>
        <mxCell id="xv28efa4fhHSgahB6fmt-74" value="" style="rounded=1;whiteSpace=wrap;html=1;strokeWidth=2;fillWeight=4;hachureGap=8;hachureAngle=45;fillColor=#1ba1e2;opacity=60;strokeColor=none;align=center;verticalAlign=middle;fontFamily=Helvetica;fontSize=12;fontColor=default;gradientColor=none;fillStyle=auto;sketch=1;curveFitting=1;jiggle=2;glass=0;shadow=0;" vertex="1" parent="1">
          <mxGeometry x="1260" y="962.84" width="150" height="42.19" as="geometry" />
        </mxCell>
        <mxCell id="xv28efa4fhHSgahB6fmt-101" value="" style="shape=mxgraph.arrows2.wedgeArrowDashed2;html=1;bendable=0;startWidth=50;stepSize=15;rounded=0;fontFamily=Helvetica;fontSize=12;fontColor=default;strokeWidth=3;strokeColor=#FFFFFF;opacity=70;flowAnimation=0;shadow=0;" edge="1" parent="1">
          <mxGeometry width="100" height="100" relative="1" as="geometry">
            <mxPoint x="869.9999999999999" y="953.66" as="sourcePoint" />
            <mxPoint x="869.9999999999999" y="893.66" as="targetPoint" />
          </mxGeometry>
        </mxCell>
        <mxCell id="xv28efa4fhHSgahB6fmt-103" value="frame" style="shape=umlFrame;whiteSpace=wrap;html=1;pointerEvents=0;rounded=1;opacity=60;strokeColor=default;align=center;verticalAlign=middle;fontFamily=Helvetica;fontSize=12;fontColor=default;fillColor=light-dark(#FFCD28,#CE6100);gradientColor=light-dark(#FFA500,#CE6100);" vertex="1" parent="1">
          <mxGeometry x="1270" y="1120" width="60" height="30" as="geometry" />
        </mxCell>
        <mxCell id="xv28efa4fhHSgahB6fmt-112" value="" style="ellipse;whiteSpace=wrap;html=1;strokeWidth=2;fillWeight=2;hachureGap=8;fillColor=#990000;fillStyle=dots;sketch=1;rounded=1;opacity=60;strokeColor=#000000;align=center;verticalAlign=middle;fontFamily=Helvetica;fontSize=12;fontColor=default;" vertex="1" parent="1">
          <mxGeometry x="1260" y="875" width="41" height="30" as="geometry" />
        </mxCell>
        <mxCell id="xv28efa4fhHSgahB6fmt-116" value="" style="group" vertex="1" connectable="0" parent="1">
          <mxGeometry x="940" y="890" width="150" height="150" as="geometry" />
        </mxCell>
        <mxCell id="xv28efa4fhHSgahB6fmt-66" value="" style="rounded=1;whiteSpace=wrap;html=1;strokeColor=default;align=center;verticalAlign=middle;fontFamily=Helvetica;fontSize=12;fontColor=default;fillColor=light-dark(#000000,#000000);gradientColor=light-dark(#000000,#000000);glass=0;shadow=1;" vertex="1" parent="xv28efa4fhHSgahB6fmt-116">
          <mxGeometry width="150" height="150" as="geometry" />
        </mxCell>
        <mxCell id="xv28efa4fhHSgahB6fmt-69" value="&lt;font face=&quot;Helvetica&quot; style=&quot;color: rgb(255, 255, 255);&quot;&gt;&lt;span style=&quot;line-height: 0%;&quot;&gt;&lt;i style=&quot;&quot;&gt;&lt;span&gt;&lt;span&gt;&lt;span&gt;&lt;font style=&quot;font-weight: bold; font-size: 18px;&quot;&gt;&lt;sup&gt;5&lt;/sup&gt;&lt;/font&gt;&lt;/span&gt;&lt;/span&gt;&lt;/span&gt;&lt;/i&gt;&lt;/span&gt;&lt;/font&gt;" style="text;strokeColor=none;align=center;fillColor=none;html=1;verticalAlign=middle;whiteSpace=wrap;rounded=0;fontFamily=Helvetica;fontSize=12;fontColor=#FFFFFF;" vertex="1" parent="xv28efa4fhHSgahB6fmt-116">
          <mxGeometry x="124" y="130" width="21" height="20" as="geometry" />
        </mxCell>
        <mxCell id="xv28efa4fhHSgahB6fmt-73" value="" style="rhombus;whiteSpace=wrap;html=1;strokeWidth=2;fillWeight=-1;hachureGap=8;fillStyle=cross-hatch;fillColor=#006600;sketch=1;rounded=1;opacity=60;strokeColor=default;align=center;verticalAlign=middle;fontFamily=Helvetica;fontSize=12;fontColor=default;arcSize=35;" vertex="1" parent="xv28efa4fhHSgahB6fmt-116">
          <mxGeometry y="50" width="150" height="90" as="geometry" />
        </mxCell>
        <mxCell id="xv28efa4fhHSgahB6fmt-68" value="&lt;font style=&quot;font-size: 46px;&quot;&gt;&lt;b style=&quot;&quot;&gt;&lt;i&gt;&lt;span&gt;&lt;span style=&quot;line-height: 230%;&quot;&gt;YOLO&lt;/span&gt;&lt;/span&gt;&lt;/i&gt;&lt;/b&gt;&lt;/font&gt;" style="text;strokeColor=none;align=center;fillColor=none;html=1;verticalAlign=middle;whiteSpace=wrap;rounded=0;fontFamily=Helvetica;fontSize=12;fontColor=#FFFFFF;movable=1;resizable=1;rotatable=1;deletable=1;editable=1;locked=0;connectable=1;" vertex="1" parent="xv28efa4fhHSgahB6fmt-116">
          <mxGeometry x="5" y="60.65999999999997" width="140" height="68.75" as="geometry" />
        </mxCell>
        <mxCell id="xv28efa4fhHSgahB6fmt-93" value="" style="edgeStyle=entityRelationEdgeStyle;startArrow=none;endArrow=none;segment=10;curved=1;sourcePerimeterSpacing=0;targetPerimeterSpacing=0;rounded=0;fontFamily=Helvetica;fontSize=12;fontColor=default;strokeWidth=3;strokeColor=#FFFFFF;startFill=0;" edge="1" parent="xv28efa4fhHSgahB6fmt-116">
          <mxGeometry relative="1" as="geometry">
            <mxPoint x="5" y="140" as="sourcePoint" />
            <mxPoint x="45.21052631578959" y="120.05263157894763" as="targetPoint" />
          </mxGeometry>
        </mxCell>
        <mxCell id="xv28efa4fhHSgahB6fmt-95" value="" style="line;strokeWidth=3;html=1;perimeter=backbonePerimeter;points=[];outlineConnect=0;rounded=1;strokeColor=#FFFFFF;align=center;verticalAlign=middle;fontFamily=Helvetica;fontSize=12;fontColor=default;fillColor=light-dark(#FFCD28,#CE6100);gradientColor=light-dark(#FFA500,#CE6100);" vertex="1" parent="xv28efa4fhHSgahB6fmt-116">
          <mxGeometry x="45" y="115.02999999999986" width="90" height="10" as="geometry" />
        </mxCell>
      </root>
    </mxGraphModel>
  </diagram>
</mxfile>
